<svg width="1024" height="1024" viewBox="0 0 32 32" fill="none" xmlns="http://www.w3.org/2000/svg"><g clip-path="url(#clip0_1_75)"><path d="M26 0H6C2.68629 0 0 2.68629 0 6V26C0 29.3137 2.68629 32 6 32H26C29.3137 32 32 29.3137 32 26V6C32 2.68629 29.3137 0 26 0Z" fill="white"/><path d="M32 0H16V32H32V0Z" fill="black"/><g><path d="M4 24V8H7L10 16L13 8H16V24H13V14L10 20L7 14V24H4Z" fill="#0891B2" stroke="white" stroke-width="0.75"/><path d="M18 8H28V11H21V15H26V18H21V21H28V24H18V8Z" fill="#0891B2" stroke="white" stroke-width="0.75"/></g></g><defs><clipPath id="clip0_1_75"><rect width="32" height="32" fill="white"/></clipPath></defs></svg>
